<!-- 简化中国地图 · 各省路径按地理相对位置排列，边界相接不重叠 -->
<!-- viewBox="0 0 1000 720" · 可在 index.html 中引用或复制 path -->
<svg xmlns="http://www.w3.org/2000/svg" viewBox="0 0 1000 720" aria-hidden="true">
  <!-- 新疆 -->
  <path id="xinjiang" d="M 42,110 L 95,78 L 175,72 L 268,95 L 292,175 L 278,268 L 248,338 L 188,372 L 118,355 L 72,285 L 48,200 L 38,145 Z"/>
  <!-- 西藏 -->
  <path id="xizang" d="M 178,348 L 258,332 L 308,358 L 298,425 L 258,468 L 198,458 L 168,412 L 172,375 Z"/>
  <!-- 青海 -->
  <path id="qinghai" d="M 268,238 L 358,228 L 378,302 L 352,358 L 292,368 L 262,318 L 258,268 Z"/>
  <!-- 甘肃 -->
  <path id="gansu" d="M 358,208 L 448,198 L 468,272 L 442,328 L 382,322 L 352,262 L 355,228 Z"/>
  <!-- 内蒙古 -->
  <path id="neimenggu" d="M 278,68 L 668,58 L 678,118 L 618,152 L 458,148 L 358,138 L 298,118 L 272,92 Z"/>
  <!-- 黑龙江 -->
  <path id="heilongjiang" d="M 678,28 L 818,22 L 828,82 L 798,118 L 718,112 L 682,78 L 675,48 Z"/>
  <!-- 吉林 -->
  <path id="jilin" d="M 698,108 L 778,118 L 768,178 L 718,188 L 688,152 Z"/>
  <!-- 辽宁 -->
  <path id="liaoning" d="M 658,168 L 738,175 L 748,232 L 688,242 L 648,212 Z"/>
  <!-- 宁夏 -->
  <path id="ningxia" d="M 412,248 L 458,242 L 462,288 L 418,292 Z"/>
  <!-- 陕西 -->
  <path id="shaanxi" d="M 382,328 L 462,322 L 472,388 L 402,398 L 368,362 Z"/>
  <!-- 山西 -->
  <path id="shanxi" d="M 452,258 L 522,252 L 532,312 L 472,322 L 445,288 Z"/>
  <!-- 河北 -->
  <path id="hebei" d="M 468,202 L 558,196 L 568,252 L 508,262 L 462,238 Z"/>
  <!-- 北京 -->
  <path id="beijing" d="M 512,228 L 528,224 L 532,242 L 516,246 Z"/>
  <!-- 天津 -->
  <path id="tianjin" d="M 538,238 L 554,234 L 558,250 L 542,254 Z"/>
  <!-- 山东 -->
  <path id="shandong" d="M 558,248 L 638,242 L 648,302 L 582,312 L 548,282 Z"/>
  <!-- 河南 -->
  <path id="henan" d="M 498,318 L 568,312 L 578,378 L 508,388 L 478,352 Z"/>
  <!-- 江苏 -->
  <path id="jiangsu" d="M 618,298 L 698,292 L 708,348 L 648,358 L 608,332 Z"/>
  <!-- 上海 -->
  <path id="shanghai" d="M 698,338 L 712,334 L 716,348 L 702,352 Z"/>
  <!-- 安徽 -->
  <path id="anhui" d="M 578,378 L 648,372 L 658,438 L 598,448 L 562,412 Z"/>
  <!-- 湖北 -->
  <path id="hubei" d="M 508,388 L 588,382 L 598,448 L 538,462 L 498,428 Z"/>
  <!-- 湖南 -->
  <path id="hunan" d="M 498,458 L 578,452 L 588,518 L 518,528 L 482,492 Z"/>
  <!-- 江西 -->
  <path id="jiangxi" d="M 588,438 L 658,432 L 668,502 L 608,512 L 572,478 Z"/>
  <!-- 浙江 -->
  <path id="zhejiang" d="M 658,368 L 728,362 L 738,422 L 678,432 L 648,398 Z"/>
  <!-- 福建 -->
  <path id="fujian" d="M 678,428 L 748,422 L 758,492 L 698,502 L 668,468 Z"/>
  <!-- 台湾 -->
  <path id="taiwan" d="M 768,448 L 798,442 L 805,502 L 775,510 L 762,478 Z"/>
  <!-- 四川 -->
  <path id="sichuan" d="M 388,398 L 488,388 L 502,468 L 452,498 L 388,478 L 368,432 Z"/>
  <!-- 重庆 -->
  <path id="chongqing" d="M 472,428 L 508,422 L 516,458 L 480,465 Z"/>
  <!-- 贵州 -->
  <path id="guizhou" d="M 458,498 L 538,492 L 548,558 L 478,568 L 442,532 Z"/>
  <!-- 云南 -->
  <path id="yunnan" d="M 348,478 L 448,472 L 462,558 L 402,578 L 332,552 L 322,512 Z"/>
  <!-- 广西 -->
  <path id="guangxi" d="M 478,558 L 558,552 L 568,612 L 498,622 L 458,588 Z"/>
  <!-- 广东 -->
  <path id="guangdong" d="M 558,548 L 648,542 L 658,608 L 578,618 L 538,582 Z"/>
  <!-- 海南 -->
  <path id="hainan" d="M 528,628 L 568,622 L 572,658 L 532,664 Z"/>
  <!-- 香港 -->
  <path id="hongkong" d="M 598,598 L 608,594 L 612,606 L 602,610 Z"/>
  <!-- 澳门 -->
  <path id="macau" d="M 578,608 L 588,604 L 592,614 L 582,618 Z"/>
</svg>
